[blackdetect @ 0x55c2b3406440] black_start:0 black_end:0.44 black_duration:0.44
[blackdetect @ 0x55c2b3406440] black_start:8.44 black_end:10.44 black_duration:2
frame=  723 fps=0.0 q=-0.0 size=N/A time=00:00:29.04 bitrate=N/A speed=58.1x    frame= 1392 fps=1391 q=-0.0 size=N/A time=00:00:55.80 bitrate=N/A speed=55.8x    [blackdetect @ 0x55c2b3406440] black_start:76.4965 black_end:78.5765 black_duration:2.08
frame= 2179 fps=1452 q=-0.0 size=N/A time=00:01:27.32 bitrate=N/A speed=58.2x    frame= 2804 fps=1400 q=-0.0 size=N/A time=00:01:52.32 bitrate=N/A speed=56.1x    frame= 3440 fps=1374 q=-0.0 size=N/A time=00:02:17.80 bitrate=N/A speed=55.1x    frame= 4079 fps=1358 q=-0.0 size=N/A time=00:02:43.36 bitrate=N/A speed=54.4x    frame= 4690 fps=1339 q=-0.0 size=N/A time=00:03:07.84 bitrate=N/A speed=53.6x    frame= 5324 fps=1329 q=-0.0 size=N/A time=00:03:33.24 bitrate=N/A speed=53.2x    frame= 5975 fps=1326 q=-0.0 size=N/A time=00:03:59.28 bitrate=N/A speed=53.1x    [blackdetect @ 0x55c2b3406440] black_start:259.625 black_end:260.185 black_duration:0.56
frame= 6633 fps=1325 q=-0.0 size=N/A time=00:04:25.64 bitrate=N/A speed=53.1x    [blackdetect @ 0x55c2b3406440] black_start:283.214 black_end:283.774 black_duration:0.56
frame= 7273 fps=1321 q=-0.0 size=N/A time=00:04:51.24 bitrate=N/A speed=52.9x    frame= 7950 fps=1323 q=-0.0 size=N/A time=00:05:18.36 bitrate=N/A speed=  53x    frame= 8605 fps=1322 q=-0.0 size=N/A time=00:05:44.60 bitrate=N/A speed=  53x    frame= 9297 fps=1326 q=-0.0 size=N/A time=00:06:12.28 bitrate=N/A speed=53.1x    frame= 9894 fps=1317 q=-0.0 size=N/A time=00:06:36.16 bitrate=N/A speed=52.7x    frame=10509 fps=1312 q=-0.0 size=N/A time=00:07:00.80 bitrate=N/A speed=52.5x    [blackdetect @ 0x55c2b3406440] black_start:421.206 black_end:421.766 black_duration:0.56
frame=11193 fps=1315 q=-0.0 size=N/A time=00:07:28.20 bitrate=N/A speed=52.7x    frame=11873 fps=1318 q=-0.0 size=N/A time=00:07:55.44 bitrate=N/A speed=52.8x    frame=12521 fps=1316 q=-0.0 size=N/A time=00:08:21.36 bitrate=N/A speed=52.7x    frame=13162 fps=1314 q=-0.0 size=N/A time=00:08:47.00 bitrate=N/A speed=52.6x    [blackdetect @ 0x55c2b3406440] black_start:552.199 black_end:552.759 black_duration:0.56
frame=13827 fps=1315 q=-0.0 size=N/A time=00:09:13.64 bitrate=N/A speed=52.7x    frame=14492 fps=1316 q=-0.0 size=N/A time=00:09:40.28 bitrate=N/A speed=52.7x    frame=15182 fps=1318 q=-0.0 size=N/A time=00:10:07.92 bitrate=N/A speed=52.8x    [blackdetect @ 0x55c2b3406440] black_start:627.004 black_end:627.564 black_duration:0.56
